<svg width="24" height="24" viewBox="0 0 24 24" fill="none" xmlns="http://www.w3.org/2000/svg">
<g id="icon/social/cake_24px">
<path id="icon/social/cake_24px_2" fill-rule="evenodd" clip-rule="evenodd" d="M12.68 6.62872C13.38 6.38872 13.9 5.72872 13.98 4.98872C14.03 4.51872 13.93 4.07872 13.7 3.71872L12.42 1.49872C12.23 1.16872 11.75 1.16872 11.55 1.49872L10.27 3.71872C10.1 4.01872 10 4.36872 10 4.74872C10 6.06872 11.3 7.09872 12.68 6.62872ZM16.53 16.6687L15.53 15.6687L14.45 16.7387C13.15 18.0387 10.87 18.0487 9.56 16.7387L8.49 15.6687L7.4 16.7387C6.75 17.3887 5.88 17.7487 4.96 17.7487C4.23 17.7487 3.56 17.5187 3 17.1387V20.7487C3 21.8487 3.9 22.7487 5 22.7487H19C20.1 22.7487 21 21.8487 21 20.7487V17.1387C20.25 17.6487 19.29 17.8887 18.26 17.6587C17.6 17.5187 17.01 17.1487 16.53 16.6687ZM13 9.74872H18C19.66 9.74872 21 11.0887 20.99 12.7587V14.1787C20.99 15.1787 20.29 16.1087 19.3 16.2387C18.68 16.3187 18.08 16.1187 17.65 15.6887L15.52 13.5587L13.38 15.6887C12.62 16.4487 11.37 16.4487 10.61 15.6887L8.48 13.5587L6.34 15.6887C5.83 16.2087 5.04 16.3887 4.31 16.1487C3.5 15.8787 3 15.0587 3 14.2087V12.7487C3 11.0887 4.34 9.74872 6 9.74872H11V8.74872C11 8.19872 11.45 7.74872 12 7.74872C12.55 7.74872 13 8.19872 13 8.74872V9.74872Z" fill="#6D7D8B"/>
</g>
</svg>
