<svg width="24" height="24" viewBox="0 0 24 24" fill="none" xmlns="http://www.w3.org/2000/svg">
<g id="icon/social/location_city_24px">
<path id="icon/social/location_city_24px_2" fill-rule="evenodd" clip-rule="evenodd" d="M15 6.12123V11.2912H19C20.1 11.2912 21 12.1912 21 13.2912V19.2912C21 20.3912 20.1 21.2912 19 21.2912H5C3.9 21.2912 3 20.3912 3 19.2912V9.29123C3 8.19123 3.9 7.29123 5 7.29123H9V6.12123C9 5.59123 9.21 5.08123 9.59 4.70123L11.29 3.00123C11.4768 2.81397 11.7305 2.70874 11.995 2.70874C12.2595 2.70874 12.5132 2.81397 12.7 3.00123L14.41 4.71123C14.79 5.08123 15 5.59123 15 6.12123ZM5 19.2912H7V17.2912H5V19.2912ZM7 15.2912H5V13.2912H7V15.2912ZM5 11.2912H7V9.29123H5V11.2912ZM13 19.2912H11V17.2912H13V19.2912ZM11 15.2912H13V13.2912H11V15.2912ZM13 11.2912H11V9.29123H13V11.2912ZM11 7.29123H13V5.29123H11V7.29123ZM19 19.2912H17V17.2912H19V19.2912ZM17 15.2912H19V13.2912H17V15.2912Z" fill="#6D7D8B"/>
</g>
</svg>
