<svg width="24" height="24" viewBox="0 0 24 24" fill="none" xmlns="http://www.w3.org/2000/svg">
<g id="icon/social/notifications_off_24px">
<path id="icon/social/notifications_off_24px_2" fill-rule="evenodd" clip-rule="evenodd" d="M17.3052 10.75C17.3052 7.68 15.6652 5.11 12.8052 4.43V3.75C12.8052 2.92 12.1352 2.25 11.3052 2.25C10.4752 2.25 9.80518 2.92 9.80518 3.75V4.43C9.60309 4.48052 9.4081 4.55231 9.22019 4.62149L9.22018 4.6215L9.11518 4.66L17.3052 12.85V10.75ZM11.3052 21.75C12.4052 21.75 13.3052 20.85 13.3052 19.75H9.30518C9.30518 20.85 10.1952 21.75 11.3052 21.75ZM3.30518 4.51L4.71518 3.1L20.6952 19.08L19.2852 20.49L17.5452 18.75H4.71518C3.82518 18.75 3.38518 17.67 4.01518 17.04L5.30518 15.75V10.75C5.30518 9.48 5.59518 8.32 6.11518 7.32L3.30518 4.51Z" fill="#6D7D8B"/>
</g>
</svg>
