<svg width="20" height="20" viewBox="0 0 20 20" fill="none" xmlns="http://www.w3.org/2000/svg">
<path d="M12.525 10.875L12.4823 10.3768L10.7139 10.5284L12.3014 11.3222L12.525 10.875ZM14.0167 15.8333L13.5455 15.6661L13.3087 16.3333H14.0167V15.8333ZM12.5583 10.9083L12.2048 11.2619L12.2324 11.2895L12.2641 11.3126L12.5583 10.9083ZM12.5505 10.8989L12.9472 10.5945L12.9472 10.5945L12.5505 10.8989ZM6.66665 9.66667C8.3283 9.66667 9.65831 8.32396 9.65831 6.66667H8.65831C8.65831 7.77604 7.77166 8.66667 6.66665 8.66667V9.66667ZM3.66665 6.66667C3.66665 8.32614 5.00717 9.66667 6.66665 9.66667V8.66667C5.55946 8.66667 4.66665 7.77386 4.66665 6.66667H3.66665ZM6.66665 3.66667C5.00717 3.66667 3.66665 5.00719 3.66665 6.66667H4.66665C4.66665 5.55948 5.55946 4.66667 6.66665 4.66667V3.66667ZM9.65831 6.66667C9.65831 5.00937 8.3283 3.66667 6.66665 3.66667V4.66667C7.77166 4.66667 8.65831 5.5573 8.65831 6.66667H9.65831ZM13.3333 9.66667C14.995 9.66667 16.325 8.32396 16.325 6.66667H15.325C15.325 7.77604 14.4383 8.66667 13.3333 8.66667V9.66667ZM10.3333 6.66667C10.3333 8.32614 11.6738 9.66667 13.3333 9.66667V8.66667C12.2261 8.66667 11.3333 7.77386 11.3333 6.66667H10.3333ZM13.3333 3.66667C11.6738 3.66667 10.3333 5.00719 10.3333 6.66667H11.3333C11.3333 5.55948 12.2261 4.66667 13.3333 4.66667V3.66667ZM16.325 6.66667C16.325 5.00937 14.995 3.66667 13.3333 3.66667V4.66667C14.4383 4.66667 15.325 5.5573 15.325 6.66667H16.325ZM1.33331 13.75C1.33331 13.4483 1.48049 13.1472 1.8107 12.8427C2.14432 12.535 2.6303 12.2588 3.20762 12.0278C4.36307 11.5654 5.75826 11.3333 6.66665 11.3333V10.3333C5.63337 10.3333 4.11189 10.5888 2.83609 11.0993C2.19779 11.3548 1.58949 11.6863 1.13275 12.1076C0.672592 12.532 0.333313 13.0809 0.333313 13.75H1.33331ZM1.33331 15V13.75H0.333313V15H1.33331ZM1.66665 15.3333C1.48446 15.3333 1.33331 15.1822 1.33331 15H0.333313C0.333313 15.7345 0.932171 16.3333 1.66665 16.3333V15.3333ZM11.6666 15.3333H1.66665V16.3333H11.6666V15.3333ZM12 15C12 15.1822 11.8488 15.3333 11.6666 15.3333V16.3333C12.4011 16.3333 13 15.7345 13 15H12ZM12 13.75V15H13V13.75H12ZM6.66665 11.3333C7.57503 11.3333 8.97022 11.5654 10.1257 12.0278C10.703 12.2588 11.189 12.535 11.5226 12.8427C11.8528 13.1472 12 13.4483 12 13.75H13C13 13.0809 12.6607 12.532 12.2005 12.1076C11.7438 11.6863 11.1355 11.3548 10.4972 11.0993C9.22141 10.5888 7.69993 10.3333 6.66665 10.3333V11.3333ZM13.3333 10.3333C13.071 10.3333 12.7799 10.3513 12.4823 10.3768L12.5677 11.3732C12.8535 11.3487 13.1124 11.3333 13.3333 11.3333V10.3333ZM19.6667 13.75C19.6667 13.0809 19.3274 12.532 18.8672 12.1076C18.4105 11.6863 17.8022 11.3548 17.1639 11.0993C15.8881 10.5888 14.3666 10.3333 13.3333 10.3333V11.3333C14.2417 11.3333 15.6369 11.5654 16.7924 12.0278C17.3697 12.2588 17.8557 12.535 18.1893 12.8427C18.5195 13.1472 18.6667 13.4483 18.6667 13.75H19.6667ZM19.6667 15V13.75H18.6667V15H19.6667ZM18.3333 16.3333C19.0678 16.3333 19.6667 15.7345 19.6667 15H18.6667C18.6667 15.1822 18.5155 15.3333 18.3333 15.3333V16.3333ZM14.0167 16.3333H18.3333V15.3333H14.0167V16.3333ZM13.6667 15C13.6667 15.2256 13.6214 15.4522 13.5455 15.6661L14.4879 16.0005C14.5953 15.6978 14.6667 15.3577 14.6667 15H13.6667ZM13.6667 13.75V15H14.6667V13.75H13.6667ZM12.2641 11.3126C13.1307 11.9435 13.6667 12.7342 13.6667 13.75H14.6667C14.6667 12.3158 13.886 11.2565 12.8526 10.5041L12.2641 11.3126ZM12.1539 11.2034C12.1543 11.2039 12.1601 11.2115 12.1667 11.2196C12.1735 11.2279 12.1867 11.2438 12.2048 11.2619L12.9119 10.5548C12.9275 10.5703 12.9382 10.5833 12.9423 10.5884C12.9464 10.5934 12.9495 10.5975 12.9472 10.5945L12.1539 11.2034ZM12.3014 11.3222C12.2442 11.2936 12.2052 11.259 12.1826 11.2359C12.1625 11.2154 12.1486 11.1964 12.1539 11.2034L12.9472 10.5945C12.9462 10.5932 12.9253 10.5651 12.897 10.5362C12.8661 10.5046 12.8174 10.4622 12.7486 10.4278L12.3014 11.3222Z" fill="#6D7D8B"/>
</svg>
