<svg width="24" height="24" viewBox="0 0 24 24" fill="none" xmlns="http://www.w3.org/2000/svg">
<g id="icon/social/school_24px">
<path id="icon/social/school_24px_2" fill-rule="evenodd" clip-rule="evenodd" d="M2.06389 8.11625L10.4939 3.51625C11.0939 3.19625 11.8139 3.19625 12.4139 3.51625L21.9339 8.70624C22.2539 8.88624 22.4539 9.21625 22.4539 9.58625V15.9962C22.4539 16.5462 22.0039 16.9962 21.4539 16.9962C20.9039 16.9962 20.4539 16.5462 20.4539 15.9962V10.0862L12.4139 14.4762C11.8139 14.8062 11.0939 14.8062 10.4939 14.4762L2.06389 9.87625C1.37389 9.49624 1.37389 8.49625 2.06389 8.11625ZM4.45389 15.9862V13.1762L10.4939 16.4762C11.0939 16.8062 11.8139 16.8062 12.4139 16.4762L18.4539 13.1762V15.9862C18.4539 16.7162 18.0539 17.3962 17.4139 17.7462L12.4139 20.4762C11.8139 20.8062 11.0939 20.8062 10.4939 20.4762L5.49389 17.7462C4.85389 17.3962 4.45389 16.7162 4.45389 15.9862Z" fill="#6D7D8B"/>
</g>
</svg>
