<svg width="24" height="24" viewBox="0 0 24 24" fill="none" xmlns="http://www.w3.org/2000/svg">
<g id="icon/social/whatshot_24px">
<path id="icon/social/whatshot_24px_2" fill-rule="evenodd" clip-rule="evenodd" d="M14.69 1.92578C15.59 2.78578 16.39 3.74578 17.09 4.77578C18.92 7.48578 20 10.7258 20 14.2158C20 18.6358 16.42 22.2158 12 22.2158C7.58 22.2158 4 18.6358 4 14.2158C4 11.6758 4.68 9.29578 5.87 7.25578C6.03 6.96578 6.2 6.69578 6.38 6.42578C6.62 6.05578 7.17 6.18578 7.28 6.60578C7.34 6.82578 7.38 6.94578 7.48 7.14578C8.03 8.47578 9.29 9.40578 10.83 9.40578C12.89 9.40578 14.24 7.73578 14.24 5.67578C14.24 4.56578 14.04 3.32578 13.85 2.38578C13.75 1.90578 14.34 1.58578 14.69 1.92578ZM8.49 16.0758C8.49 17.8158 9.93 19.2158 11.71 19.2158C14.36 19.2158 16.51 17.0658 16.5 14.4158C16.5 13.3458 16.38 12.2858 16.15 11.2658C16.07 10.8958 15.61 10.7758 15.33 11.0358C14.28 12.0258 12.77 12.6558 11.3 12.9558C9.54 13.3158 8.49 14.4558 8.49 16.0758Z" fill="#6D7D8B"/>
</g>
</svg>
