<svg width="10" height="10" viewBox="0 0 10 10" fill="none" xmlns="http://www.w3.org/2000/svg">
<path fill-rule="evenodd" clip-rule="evenodd" d="M6.12079 0.802388C6.49579 1.16072 6.82913 1.56072 7.12079 1.98989C7.88329 3.11905 8.33329 4.46905 8.33329 5.92322C8.33329 7.76489 6.84163 9.25655 4.99996 9.25655C3.15829 9.25655 1.66663 7.76489 1.66663 5.92322C1.66663 4.86489 1.94996 3.87322 2.44579 3.02322C2.51246 2.90239 2.58329 2.78989 2.65829 2.67739C2.75829 2.52322 2.98746 2.57739 3.03329 2.75239C3.05829 2.84405 3.07496 2.89405 3.11663 2.97739C3.34579 3.53155 3.87079 3.91905 4.51246 3.91905C5.37079 3.91905 5.93329 3.22322 5.93329 2.36489C5.93329 1.90239 5.84996 1.38572 5.77079 0.994054C5.72913 0.794054 5.97496 0.660721 6.12079 0.802388ZM3.53732 6.69822C3.53732 7.42322 4.13732 8.00655 4.87899 8.00655C5.98316 8.00655 6.87899 7.11072 6.87482 6.00655C6.87482 5.56072 6.82482 5.11905 6.72899 4.69405C6.69566 4.53989 6.50399 4.48989 6.38732 4.59822C5.94982 5.01072 5.32066 5.27322 4.70816 5.39822C3.97482 5.54822 3.53732 6.02322 3.53732 6.69822Z" fill="#6D7D8B"/>
</svg>
