<svg width="24" height="24" viewBox="0 0 24 24" fill="none" xmlns="http://www.w3.org/2000/svg">
<g id="icon/file/download_done_24px">
<path id="icon/file/download_done_24px_2" fill-rule="evenodd" clip-rule="evenodd" d="M8.19 13.6075C8.97 14.3875 10.23 14.3875 11.01 13.6175L18.01 6.68747C18.56 6.14747 18.56 5.26747 18.02 4.72747L17.98 4.68747C17.44 4.14747 16.57 4.14747 16.03 4.68747L9.6 11.1175L7.95 9.46747C7.43 8.94747 6.57 8.92747 6.03 9.44747C5.46 9.97747 5.45 10.8675 6 11.4175L8.19 13.6075ZM18 17.7175H6C5.45 17.7175 5 18.1675 5 18.7175C5 19.2675 5.45 19.7175 6 19.7175H18C18.55 19.7175 19 19.2675 19 18.7175C19 18.1675 18.55 17.7175 18 17.7175Z" fill="#6D7D8B"/>
</g>
</svg>
