<svg width="24" height="24" viewBox="0 0 24 24" fill="none" xmlns="http://www.w3.org/2000/svg">
<g id="icon/av/mic_off_24px">
<path id="icon/av/mic_off_24px_2" fill-rule="evenodd" clip-rule="evenodd" d="M14.9199 11.1V5.5C14.9199 3.84 13.5799 2.5 11.9199 2.5C10.3799 2.5 9.1299 3.66 8.9599 5.15L14.9199 11.1ZM17.9999 11.5C17.5899 11.5 17.2299 11.8 17.1699 12.21C17.1199 12.53 17.0499 12.85 16.9499 13.14L18.2199 14.41C18.5199 13.81 18.7399 13.16 18.8499 12.47C18.9199 11.96 18.5199 11.5 17.9999 11.5ZM3.6299 5.47C3.2399 5.08 3.2399 4.45 3.6299 4.06C3.81673 3.87275 4.07038 3.76751 4.3349 3.76751C4.59942 3.76751 4.85307 3.87275 5.0399 4.06L20.3699 19.4C20.7599 19.79 20.7599 20.42 20.3699 20.81C19.9799 21.2 19.3499 21.2 18.9599 20.81L15.4699 17.32C14.6899 17.77 13.8299 18.09 12.9199 18.22V20.5C12.9199 21.05 12.4699 21.5 11.9199 21.5C11.3699 21.5 10.9199 21.05 10.9199 20.5V18.22C7.9499 17.77 5.4499 15.43 4.9899 12.47C4.9199 11.96 5.3199 11.5 5.8399 11.5C6.2499 11.5 6.6099 11.8 6.6699 12.21C7.0399 14.83 9.3799 16.6 11.9199 16.6C12.7299 16.6 13.5199 16.41 14.2299 16.08L12.5699 14.42C11.9599 14.55 11.2999 14.54 10.5499 14.11C9.5199 13.52 8.9199 12.39 8.9199 11.2V10.77L3.6299 5.47Z" fill="#6D7D8B"/>
</g>
</svg>
