<svg width="24" height="24" viewBox="0 0 24 24" fill="none" xmlns="http://www.w3.org/2000/svg">
<g id="icon/av/replay_30_24px">
<path id="icon/av/replay_30_24px_2" fill-rule="evenodd" clip-rule="evenodd" d="M11.9619 2.85249V5.64249C16.9019 5.64249 20.8019 10.1225 19.8119 15.2525C19.2019 18.3725 16.6919 20.8825 13.5719 21.4925C8.84194 22.4125 4.66194 19.1625 4.04194 14.7725C3.96194 14.1725 4.44194 13.6425 5.04194 13.6425C5.53194 13.6425 5.95194 14.0125 6.02194 14.4925C6.50194 17.8025 9.68194 20.2525 13.2519 19.5025C15.5119 19.0325 17.3519 17.2025 17.8219 14.9325C18.6419 11.0625 15.6919 7.64249 11.9619 7.64249V10.4325C11.9619 10.8825 11.4219 11.1025 11.1019 10.7925L7.31194 7.00249C7.11194 6.80249 7.11194 6.49249 7.31194 6.29249L11.1119 2.50249C11.4219 2.18249 11.9619 2.40249 11.9619 2.85249ZM9.97194 14.1325H9.52194V14.7825H9.99194C10.1019 14.7825 10.1919 14.8025 10.2819 14.8225C10.3719 14.8425 10.4419 14.8825 10.5019 14.9325C10.5619 14.9825 10.6119 15.0525 10.6419 15.1325C10.6719 15.2125 10.6919 15.3125 10.6919 15.4225C10.6919 15.5125 10.6819 15.5925 10.6519 15.6625C10.6219 15.7325 10.5719 15.7925 10.5219 15.8425C10.4719 15.8925 10.4019 15.9325 10.3219 15.9625C10.2419 15.9925 10.1519 16.0025 10.0519 16.0025C9.96195 16.0025 9.88195 15.9825 9.80195 15.9625L9.80194 15.9625C9.72194 15.9425 9.66194 15.9025 9.60194 15.8525C9.54194 15.8025 9.50194 15.7525 9.47194 15.6825C9.44194 15.6125 9.42194 15.5425 9.42194 15.4625H8.57194C8.57194 15.6725 8.61194 15.8625 8.69194 16.0125C8.77194 16.1625 8.89194 16.2825 9.02194 16.3925C9.15194 16.5025 9.31194 16.5725 9.48194 16.6225C9.65194 16.6725 9.83194 16.6925 10.0119 16.6925C10.2319 16.6925 10.4219 16.6625 10.6119 16.6125C10.8019 16.5625 10.9519 16.4725 11.0919 16.3725C11.2319 16.2725 11.3319 16.1325 11.4119 15.9825C11.4919 15.8325 11.5319 15.6525 11.5319 15.4525C11.5319 15.2225 11.4719 15.0225 11.3519 14.8425C11.2319 14.6625 11.0519 14.5425 10.8119 14.4525C10.9219 14.4025 11.0119 14.3525 11.0919 14.2825C11.1719 14.2125 11.2319 14.1425 11.2919 14.0625C11.3519 13.9825 11.3919 13.9025 11.4219 13.8125C11.4519 13.7225 11.4619 13.6325 11.4619 13.5425C11.4619 13.3425 11.4219 13.1625 11.3519 13.0125C11.2819 12.8625 11.1819 12.7325 11.0519 12.6325C10.9219 12.5325 10.7719 12.4525 10.5919 12.4025C10.4119 12.3525 10.2119 12.3225 10.0019 12.3225C9.81194 12.3225 9.63194 12.3525 9.46194 12.4025C9.29194 12.4525 9.15194 12.5325 9.02194 12.6325C8.89194 12.7325 8.79194 12.8625 8.72194 13.0025C8.65194 13.1425 8.61194 13.3025 8.61194 13.4825H9.46194C9.46194 13.4125 9.48194 13.3425 9.51194 13.2825C9.54194 13.2225 9.58194 13.1825 9.63194 13.1325C9.68194 13.0825 9.74194 13.0525 9.81194 13.0325C9.88194 13.0125 9.95194 13.0025 10.0319 13.0025C10.1219 13.0025 10.2119 13.0225 10.2819 13.0425C10.3519 13.0625 10.4119 13.1025 10.4619 13.1525C10.5119 13.2025 10.5419 13.2525 10.5719 13.3225C10.6019 13.3925 10.6119 13.4625 10.6119 13.5425C10.6119 13.7225 10.5619 13.8625 10.4519 13.9725C10.3419 14.0825 10.1819 14.1325 9.97194 14.1325ZM15.2619 14.8825C15.2619 15.2025 15.2319 15.4825 15.1619 15.7025C15.0919 15.9225 14.9919 16.1225 14.8719 16.2725C14.7519 16.4225 14.5919 16.5325 14.4219 16.6025C14.2519 16.6725 14.0519 16.7025 13.8319 16.7025C13.6119 16.7025 13.4219 16.6725 13.2419 16.6025C13.0619 16.5325 12.9119 16.4225 12.7819 16.2725C12.6519 16.1225 12.5519 15.9325 12.4819 15.7025C12.4119 15.4725 12.3719 15.2025 12.3719 14.8825V14.1425C12.3719 13.8225 12.4019 13.5425 12.4719 13.3225C12.5419 13.1025 12.6419 12.9025 12.7619 12.7525C12.8819 12.6025 13.0419 12.4925 13.2119 12.4225C13.3819 12.3525 13.5819 12.3225 13.8019 12.3225C14.0219 12.3225 14.2119 12.3525 14.3919 12.4225C14.5719 12.4925 14.7219 12.6025 14.8519 12.7525C14.9819 12.9025 15.0819 13.0925 15.1519 13.3225C15.2219 13.5525 15.2619 13.8225 15.2619 14.1425V14.8825ZM14.3719 13.5425C14.4019 13.6725 14.4119 13.8325 14.4119 14.0225H14.4019V14.9925C14.4019 15.1825 14.3919 15.3425 14.3619 15.4725C14.3419 15.6025 14.3019 15.7125 14.2519 15.7925C14.2019 15.8725 14.1319 15.9325 14.0619 15.9625C13.9919 15.9925 13.9019 16.0125 13.8119 16.0125C13.7219 16.0125 13.6419 15.9925 13.5619 15.9625C13.4819 15.9325 13.4219 15.8725 13.3719 15.7925C13.3219 15.7125 13.2819 15.6025 13.2519 15.4725C13.2219 15.3425 13.2119 15.1825 13.2119 14.9925V14.0225C13.2119 13.8325 13.2219 13.6725 13.2519 13.5425C13.2819 13.4125 13.3219 13.3125 13.3719 13.2325C13.4219 13.1525 13.4919 13.0925 13.5619 13.0625C13.6319 13.0325 13.7219 13.0125 13.8119 13.0125C13.9019 13.0125 13.9819 13.0325 14.0619 13.0625C14.1419 13.0925 14.2019 13.1525 14.2519 13.2325C14.3019 13.3125 14.3419 13.4125 14.3719 13.5425Z" fill="#6D7D8B"/>
</g>
</svg>
