<svg width="24" height="24" viewBox="0 0 24 24" fill="none" xmlns="http://www.w3.org/2000/svg">
<g id="icon/av/shuffle_24px">
<path id="icon/av/shuffle_24px_2" fill-rule="evenodd" clip-rule="evenodd" d="M15.1461 4.85L16.3361 6.04L4.49611 17.88C4.10611 18.27 4.10611 18.9 4.49611 19.29C4.88611 19.68 5.51611 19.68 5.90611 19.29L17.7561 7.46L18.9461 8.65C19.2561 8.96 19.7961 8.74 19.7961 8.29V4.5C19.7961 4.22 19.5761 4 19.2961 4H15.5061C15.0561 4 14.8361 4.54 15.1461 4.85ZM10.3861 9.17L5.91611 4.7C5.72928 4.51275 5.47563 4.40751 5.21111 4.40751C4.9466 4.40751 4.69294 4.51275 4.50611 4.7C4.11611 5.09 4.11611 5.72 4.50611 6.11L8.96611 10.57L10.3861 9.17ZM13.2161 14.82L14.6261 13.41L17.7561 16.55L18.9461 15.36C19.2561 15.04 19.7961 15.26 19.7961 15.71V19.5C19.7961 19.78 19.5761 20 19.2961 20H15.5061C15.0561 20 14.8361 19.46 15.1461 19.15L16.3461 17.95L13.2161 14.82Z" fill="#6D7D8B"/>
</g>
</svg>
