<svg width="24" height="24" viewBox="0 0 24 24" fill="none" xmlns="http://www.w3.org/2000/svg">
<g id="icon/av/videocam_off_24px">
<path id="icon/av/videocam_off_24px_2" fill-rule="evenodd" clip-rule="evenodd" d="M3.00148 4.54001C2.61148 4.15001 2.61148 3.52001 3.00148 3.13001C3.18832 2.94276 3.44197 2.83752 3.70648 2.83752C3.971 2.83752 4.22465 2.94276 4.41148 3.13001L20.7315 19.46C21.1215 19.85 21.1215 20.48 20.7315 20.87C20.3415 21.26 19.7115 21.26 19.3215 20.87L16.8415 18.39C16.6815 18.49 16.5015 18.57 16.2915 18.57H4.29148C3.74148 18.57 3.29148 18.12 3.29148 17.57V7.57001C3.29148 7.02001 3.74148 6.57001 4.29148 6.57001H5.02148L3.00148 4.54001ZM21.2915 9.48001V14.77C21.2915 15.66 20.2115 16.11 19.5915 15.48L10.6815 6.57001H16.2915C16.8415 6.57001 17.2915 7.02001 17.2915 7.57001V11.07L19.5815 8.77001C20.2115 8.14001 21.2915 8.59001 21.2915 9.48001Z" fill="#6D7D8B"/>
</g>
</svg>
