<svg width="24" height="24" viewBox="0 0 24 24" fill="none" xmlns="http://www.w3.org/2000/svg">
<g id="icon/communication/add_call_24px">
<path id="icon/communication/add_call_24px_2" fill-rule="evenodd" clip-rule="evenodd" d="M15.992 8.01318H13.992C13.442 8.01318 12.992 7.56318 12.992 7.01318C12.992 6.46318 13.442 6.01318 13.992 6.01318H15.992V4.01318C15.992 3.46318 16.442 3.01318 16.992 3.01318C17.542 3.01318 17.992 3.46318 17.992 4.01318V6.01318H19.992C20.542 6.01318 20.992 6.46318 20.992 7.01318C20.992 7.56318 20.542 8.01318 19.992 8.01318H17.992V10.0132C17.992 10.5632 17.542 11.0132 16.992 11.0132C16.442 11.0132 15.992 10.5632 15.992 10.0132V8.01318ZM16.662 14.9932L19.202 15.2832C20.212 15.3932 20.982 16.2532 20.972 17.2532V18.9832C20.972 20.1132 20.032 21.0532 18.902 20.9832C10.372 20.4532 3.54197 13.6332 3.01197 5.09318C2.94197 3.96318 3.88197 3.02318 5.01197 3.02318H6.74197C7.75197 3.02318 8.61197 3.79318 8.72197 4.80318L9.01197 7.32318C9.08197 7.92318 8.87197 8.53318 8.44197 8.96318L6.59197 10.8132C8.03197 13.6532 10.352 15.9632 13.182 17.4032L15.022 15.5632C15.452 15.1332 16.052 14.9232 16.662 14.9932Z" fill="#6D7D8B"/>
</g>
</svg>
