<svg width="24" height="24" viewBox="0 0 24 24" fill="none" xmlns="http://www.w3.org/2000/svg">
<g id="icon/communication/alternate_email_24px">
<path id="Subtract" fill-rule="evenodd" clip-rule="evenodd" d="M2.02763 12.7179C1.59763 6.62787 6.62763 1.59787 12.7176 2.02787C18.0076 2.38787 21.9976 7.00787 21.9976 12.3179V13.4079C21.9976 14.8479 21.1776 16.2179 19.8376 16.7479C18.2076 17.3979 16.4276 16.7579 15.5376 15.5379C14.3876 16.7079 12.6376 17.2979 10.7976 16.8679C8.90763 16.4179 7.41763 14.8379 7.07763 12.9279C6.46763 9.50787 9.33763 6.56787 12.7376 7.05787C15.2176 7.40787 16.9976 9.66787 16.9976 12.1779V13.4279C16.9976 14.2179 17.7076 14.9979 18.4976 14.9979C19.2876 14.9979 19.9976 14.2179 19.9976 13.4279V12.3279C19.9976 8.59787 17.5776 5.17787 13.9576 4.25787C8.15763 2.75787 2.75763 8.16787 4.24763 13.9679C5.17763 17.5779 8.59763 19.9979 12.3276 19.9979H15.9976C16.5476 19.9979 16.9976 20.4479 16.9976 20.9979C16.9976 21.5479 16.5476 21.9979 15.9976 21.9979H12.3076C7.00763 21.9979 2.38763 18.0079 2.02763 12.7179ZM8.99762 11.9979C8.99762 13.6579 10.3376 14.9979 11.9976 14.9979C13.6576 14.9979 14.9976 13.6579 14.9976 11.9979C14.9976 10.3379 13.6576 8.99786 11.9976 8.99786C10.3376 8.99786 8.99762 10.3379 8.99762 11.9979Z" fill="#6D7D8B"/>
</g>
</svg>
