<svg width="24" height="24" viewBox="0 0 24 24" fill="none" xmlns="http://www.w3.org/2000/svg">
<g id="icon/communication/call_end_24px">
<path id="icon/communication/call_end_24px_2" d="M4.5801 16.0303L6.5801 14.4403C7.0601 14.0603 7.3401 13.4803 7.3401 12.8703V10.2703C10.3601 9.29034 13.6301 9.28034 16.6601 10.2703V12.8803C16.6601 13.4903 16.9401 14.0703 17.4201 14.4503L19.4101 16.0303C20.2101 16.6603 21.3501 16.6003 22.0701 15.8803L23.2901 14.6603C24.0901 13.8603 24.0901 12.5303 23.2401 11.7803C16.8301 6.12034 7.1701 6.12034 0.760103 11.7803C-0.089897 12.5303 -0.089897 13.8603 0.710103 14.6603L1.9301 15.8803C2.6401 16.6003 3.7801 16.6603 4.5801 16.0303Z" fill="#6D7D8B"/>
</g>
</svg>
