<svg width="24" height="24" viewBox="0 0 24 24" fill="none" xmlns="http://www.w3.org/2000/svg">
<g id="icon/communication/location_off_24px">
<path id="icon/communication/location_off_24px_2" fill-rule="evenodd" clip-rule="evenodd" d="M8.18016 4.12501C9.43016 2.97501 11.0902 2.26501 12.9302 2.26501C16.8002 2.26501 19.9302 5.39501 19.9302 9.26501C19.9302 10.835 19.3002 12.625 18.4202 14.375L14.8702 10.825C15.2202 10.395 15.4302 9.85501 15.4302 9.26501C15.4302 7.88501 14.3102 6.76501 12.9302 6.76501C12.3402 6.76501 11.8002 6.97501 11.3702 7.31501L8.18016 4.12501ZM3.64016 5.23501C3.25016 4.84501 3.25016 4.21501 3.64016 3.82501C3.82699 3.63776 4.08064 3.53253 4.34516 3.53253C4.60967 3.53253 4.86332 3.63776 5.05016 3.82501L20.3602 19.155C20.7502 19.545 20.7502 20.175 20.3602 20.565C19.9702 20.955 19.3402 20.955 18.9502 20.565L16.3002 17.915C15.3102 19.365 14.3402 20.595 13.6902 21.375C13.2902 21.855 12.5602 21.855 12.1602 21.375C10.3502 19.185 5.93016 13.435 5.93016 9.26501C5.93016 8.73501 6.00016 8.21501 6.11016 7.70501L3.64016 5.23501Z" fill="#6D7D8B"/>
</g>
</svg>
