<svg width="20" height="20" viewBox="0 0 20 20" fill="none" xmlns="http://www.w3.org/2000/svg">
<path d="M1.67502 3.33333L2.17502 3.33361V3.33333H1.67502ZM1.66669 18.3333L1.16669 18.3331L1.16602 19.5411L2.02024 18.6869L1.66669 18.3333ZM5.00002 15V14.5H4.79291L4.64647 14.6464L5.00002 15ZM16.6667 1.16667H3.33335V2.16667H16.6667V1.16667ZM3.33335 1.16667C2.13729 1.16667 1.17502 2.14379 1.17502 3.33333H2.17502C2.17502 2.68954 2.69609 2.16667 3.33335 2.16667V1.16667ZM1.17502 3.33306L1.16669 18.3331L2.16669 18.3336L2.17502 3.33361L1.17502 3.33306ZM2.02024 18.6869L5.35357 15.3536L4.64647 14.6464L1.31313 17.9798L2.02024 18.6869ZM5.00002 15.5H16.6667V14.5H5.00002V15.5ZM16.6667 15.5C17.8595 15.5 18.8334 14.5261 18.8334 13.3333H17.8334C17.8334 13.9739 17.3072 14.5 16.6667 14.5V15.5ZM18.8334 13.3333V3.33333H17.8334V13.3333H18.8334ZM18.8334 3.33333C18.8334 2.14052 17.8595 1.16667 16.6667 1.16667V2.16667C17.3072 2.16667 17.8334 2.69281 17.8334 3.33333H18.8334Z" fill="#6D7D8B"/>
</svg>
