<svg width="24" height="24" viewBox="0 0 24 24" fill="none" xmlns="http://www.w3.org/2000/svg">
<g id="icon/navigation/first_page_24px">
<path id="icon/navigation/first_page_24px_2" fill-rule="evenodd" clip-rule="evenodd" d="M7.99854 7C7.99854 6.45 7.54854 6 6.99854 6C6.44854 6 5.99854 6.45 5.99854 7V17C5.99854 17.55 6.44854 18 6.99854 18C7.54854 18 7.99854 17.55 7.99854 17V7ZM13.8185 12L17.6985 15.89C18.0885 16.27 18.0885 16.91 17.7085 17.29C17.3185 17.68 16.6885 17.68 16.2985 17.29L11.7085 12.7C11.3185 12.31 11.3185 11.68 11.7085 11.29L16.2985 6.7C16.4854 6.51275 16.739 6.40751 17.0035 6.40751C17.2681 6.40751 17.5217 6.51275 17.7085 6.7C18.0985 7.09 18.0985 7.72 17.7085 8.11L13.8185 12Z" fill="#6D7D8B"/>
</g>
</svg>
