<svg width="24" height="24" viewBox="0 0 24 24" fill="none" xmlns="http://www.w3.org/2000/svg">
<g id="icon/navigation/last_page_24px">
<path id="icon/navigation/last_page_24px_2" fill-rule="evenodd" clip-rule="evenodd" d="M18.001 7C18.001 6.45 17.551 6 17.001 6C16.451 6 16.001 6.45 16.001 7V17C16.001 17.55 16.451 18 17.001 18C17.551 18 18.001 17.55 18.001 17V7ZM10.181 12L6.29104 8.11C5.91104 7.73 5.91104 7.09 6.29104 6.7C6.47787 6.51275 6.73152 6.40751 6.99604 6.40751C7.26055 6.40751 7.5142 6.51275 7.70104 6.7L12.291 11.3C12.681 11.69 12.681 12.32 12.291 12.71L7.70104 17.3C7.31104 17.69 6.68104 17.69 6.29104 17.3C5.90104 16.91 5.90104 16.28 6.29104 15.89L10.181 12Z" fill="#6D7D8B"/>
</g>
</svg>
