<svg width="24" height="24" viewBox="0 0 24 24" fill="none" xmlns="http://www.w3.org/2000/svg">
<g id="icon/navigation/unfold_more_24px">
<path id="icon/navigation/unfold_more_24px_2" fill-rule="evenodd" clip-rule="evenodd" d="M14.4601 8.28996L12.0001 5.82996L9.53014 8.28996C9.14014 8.67996 8.51014 8.67996 8.12014 8.28996C7.73014 7.89996 7.73014 7.26996 8.12014 6.87996L11.2901 3.69996C11.477 3.5127 11.7306 3.40747 11.9951 3.40747C12.2597 3.40747 12.5133 3.5127 12.7001 3.69996L15.8701 6.87996C16.2601 7.26996 16.2601 7.89996 15.8701 8.28996C15.4801 8.67996 14.8501 8.67996 14.4601 8.28996ZM9.54014 15.71L12.0001 18.17L14.4701 15.72C14.657 15.5327 14.9106 15.4275 15.1751 15.4275C15.4397 15.4275 15.6933 15.5327 15.8801 15.72C16.2701 16.11 16.2701 16.74 15.8801 17.13L12.7101 20.3C12.3201 20.69 11.6901 20.69 11.3001 20.3L8.13014 17.12C7.74014 16.73 7.74014 16.1 8.13014 15.71C8.31697 15.5227 8.57062 15.4175 8.83514 15.4175C9.09965 15.4175 9.35331 15.5227 9.54014 15.71Z" fill="#6D7D8B"/>
</g>
</svg>
