<svg width="24" height="24" viewBox="0 0 24 24" fill="none" xmlns="http://www.w3.org/2000/svg">
<g id="icon/navigation/unfold_less_24px">
<path id="icon/navigation/unfold_less_24px_2" fill-rule="evenodd" clip-rule="evenodd" d="M15.1751 4.40747C15.4397 4.40747 15.6933 4.5127 15.8801 4.69996C16.2701 5.08996 16.2701 5.72996 15.8701 6.11996L12.7001 9.28996C12.3101 9.67996 11.6801 9.67996 11.2901 9.28996L8.12014 6.11996C7.73014 5.72996 7.73014 5.08996 8.12014 4.69996C8.30697 4.5127 8.56062 4.40747 8.82514 4.40747C9.08965 4.40747 9.34331 4.5127 9.53014 4.69996L12.0001 7.16996L14.4701 4.69996C14.657 4.5127 14.9106 4.40747 15.1751 4.40747ZM12.0001 16.83L9.53014 19.3C9.14014 19.69 8.51014 19.69 8.12014 19.3C7.73014 18.91 7.73014 18.27 8.13014 17.89L11.3001 14.72C11.487 14.5327 11.7406 14.4275 12.0051 14.4275C12.2697 14.4275 12.5233 14.5327 12.7101 14.72L15.8801 17.89C16.2701 18.28 16.2701 18.91 15.8801 19.3C15.4901 19.69 14.8601 19.69 14.4701 19.3L12.0001 16.83Z" fill="#6D7D8B"/>
</g>
</svg>
