<svg width="24" height="24" viewBox="0 0 24 24" fill="none" xmlns="http://www.w3.org/2000/svg">
<g id="icon/alert/add_24px">
<path id="icon/alert/add_24px_2" fill-rule="evenodd" clip-rule="evenodd" d="M19.001 16.75V10.75C19.001 7.4 16.641 4.6 13.501 3.92V2.75C13.501 1.92 12.831 1.25 12.001 1.25C11.171 1.25 10.501 1.92 10.501 2.75V3.92C7.36103 4.6 5.00103 7.4 5.00103 10.75V16.75L3.71103 18.04C3.08103 18.67 3.52103 19.75 4.41103 19.75H19.581C20.471 19.75 20.921 18.67 20.291 18.04L19.001 16.75ZM12.001 22.75C13.101 22.75 13.991 21.86 13.991 20.76H10.011C10.011 21.86 10.901 22.75 12.001 22.75ZM13.001 12.76H15.001C15.551 12.76 16.001 12.31 16.001 11.76V11.75C16.001 11.2 15.551 10.75 15.001 10.75H13.001V8.75C13.001 8.2 12.551 7.75 12.001 7.75C11.451 7.75 11.001 8.2 11.001 8.75V10.75H9.00103C8.45103 10.75 8.00103 11.2 8.00103 11.75V11.76C8.00103 12.31 8.45103 12.76 9.00103 12.76H11.001V14.76C11.001 15.31 11.451 15.76 12.001 15.76C12.551 15.76 13.001 15.31 13.001 14.76V12.76Z" fill="#6D7D8B"/>
</g>
</svg>
