<svg width="24" height="24" viewBox="0 0 24 24" fill="none" xmlns="http://www.w3.org/2000/svg">
<g id="icon/alert/notification_important_24px">
<path id="icon/alert/notification_important_24px_2" fill-rule="evenodd" clip-rule="evenodd" d="M19.0001 16.75L20.2901 18.04C20.92 18.67 20.4801 19.75 19.5801 19.75H4.41005C3.52005 19.75 3.08005 18.67 3.71005 18.04L5.00005 16.75V10.75C5.00005 7.4 7.36005 4.6 10.5001 3.92V2.75C10.5001 1.92 11.1701 1.25 12.0001 1.25C12.8301 1.25 13.5001 1.92 13.5001 2.75V3.92C16.6401 4.6 19.0001 7.4 19.0001 10.75V16.75ZM13.9901 20.76C13.9901 21.86 13.1001 22.75 12.0001 22.75C10.9001 22.75 10.0101 21.86 10.0101 20.76H13.9901ZM11.0001 15.75V13.75H13.0001V15.75H11.0001ZM12.0001 11.75C12.5501 11.75 13.0001 11.3 13.0001 10.75V8.75C13.0001 8.2 12.5501 7.75 12.0001 7.75C11.4501 7.75 11.0001 8.2 11.0001 8.75V10.75C11.0001 11.3 11.4501 11.75 12.0001 11.75Z" fill="#6D7D8B"/>
</g>
</svg>
