<svg width="24" height="24" viewBox="0 0 24 24" fill="none" xmlns="http://www.w3.org/2000/svg">
<path d="M20.2902 18.04L19.9366 18.3936L20.2902 18.04ZM19.0002 16.75H18.5002V16.9571L18.6466 17.1036L19.0002 16.75ZM3.71017 18.04L4.06373 18.3936H4.06373L3.71017 18.04ZM5.00017 16.75L5.35373 17.1036L5.50017 16.9571V16.75H5.00017ZM10.5002 3.92L10.606 4.40867L11.0002 4.32331V3.92H10.5002ZM13.5002 3.92H13.0002V4.32331L13.3943 4.40867L13.5002 3.92ZM13.9902 20.76H14.4902V20.26H13.9902V20.76ZM10.0102 20.76V20.26H9.51017V20.76H10.0102ZM11.0002 13.75V13.25H10.5002V13.75H11.0002ZM11.0002 15.75H10.5002V16.25H11.0002V15.75ZM13.0002 13.75H13.5002V13.25H13.0002V13.75ZM13.0002 15.75V16.25H13.5002V15.75H13.0002ZM20.6437 17.6864L19.3537 16.3964L18.6466 17.1036L19.9366 18.3936L20.6437 17.6864ZM19.5802 20.25C20.9286 20.25 21.5866 18.6293 20.6437 17.6864L19.9366 18.3936C20.2538 18.7107 20.0317 19.25 19.5802 19.25V20.25ZM4.41017 20.25H19.5802V19.25H4.41017V20.25ZM3.35662 17.6864C2.41755 18.6255 3.06637 20.25 4.41017 20.25V19.25C3.97398 19.25 3.74279 18.7145 4.06373 18.3936L3.35662 17.6864ZM4.64662 16.3964L3.35662 17.6864L4.06373 18.3936L5.35373 17.1036L4.64662 16.3964ZM4.50017 10.75V16.75H5.50017V10.75H4.50017ZM10.3943 3.43133C7.02917 4.16009 4.50017 7.15971 4.50017 10.75H5.50017C5.50017 7.64029 7.69118 5.03991 10.606 4.40867L10.3943 3.43133ZM10.0002 2.75V3.92H11.0002V2.75H10.0002ZM12.0002 0.75C10.894 0.75 10.0002 1.64386 10.0002 2.75H11.0002C11.0002 2.19614 11.4463 1.75 12.0002 1.75V0.75ZM14.0002 2.75C14.0002 1.64386 13.1063 0.75 12.0002 0.75V1.75C12.554 1.75 13.0002 2.19614 13.0002 2.75H14.0002ZM14.0002 3.92V2.75H13.0002V3.92H14.0002ZM19.5002 10.75C19.5002 7.15971 16.9712 4.16009 13.606 3.43133L13.3943 4.40867C16.3092 5.03991 18.5002 7.64029 18.5002 10.75H19.5002ZM19.5002 16.75V10.75H18.5002V16.75H19.5002ZM12.0002 23.25C13.3763 23.25 14.4902 22.1361 14.4902 20.76H13.4902C13.4902 21.5839 12.824 22.25 12.0002 22.25V23.25ZM9.51017 20.76C9.51017 22.1361 10.624 23.25 12.0002 23.25V22.25C11.1763 22.25 10.5102 21.5839 10.5102 20.76H9.51017ZM13.9902 20.26H10.0102V21.26H13.9902V20.26ZM10.5002 13.75V15.75H11.5002V13.75H10.5002ZM13.0002 13.25H11.0002V14.25H13.0002V13.25ZM13.5002 15.75V13.75H12.5002V15.75H13.5002ZM11.0002 16.25H13.0002V15.25H11.0002V16.25ZM12.5002 10.75C12.5002 11.0239 12.274 11.25 12.0002 11.25V12.25C12.8263 12.25 13.5002 11.5761 13.5002 10.75H12.5002ZM12.5002 8.75V10.75H13.5002V8.75H12.5002ZM12.0002 8.25C12.274 8.25 12.5002 8.47614 12.5002 8.75H13.5002C13.5002 7.92386 12.8263 7.25 12.0002 7.25V8.25ZM11.5002 8.75C11.5002 8.47614 11.7263 8.25 12.0002 8.25V7.25C11.174 7.25 10.5002 7.92386 10.5002 8.75H11.5002ZM11.5002 10.75V8.75H10.5002V10.75H11.5002ZM12.0002 11.25C11.7263 11.25 11.5002 11.0239 11.5002 10.75H10.5002C10.5002 11.5761 11.174 12.25 12.0002 12.25V11.25Z" fill="#868686"/>
</svg>
