<svg width="24" height="24" viewBox="0 0 24 24" fill="none" xmlns="http://www.w3.org/2000/svg">
<g id="icon/alert/warning_amber_24px">
<path id="icon/alert/warning_amber_24px_2" fill-rule="evenodd" clip-rule="evenodd" d="M4.47012 20.5038C2.93012 20.5038 1.97012 18.8338 2.74012 17.5038L10.2701 4.49378C11.0401 3.16378 12.9601 3.16378 13.7301 4.49378L21.2601 17.5038C22.0301 18.8338 21.0701 20.5038 19.5301 20.5038H4.47012ZM19.5301 18.5038L12.0001 5.49378L4.47012 18.5038H19.5301ZM11.0001 10.5038V12.5038C11.0001 13.0538 11.4501 13.5038 12.0001 13.5038C12.5501 13.5038 13.0001 13.0538 13.0001 12.5038V10.5038C13.0001 9.95378 12.5501 9.50378 12.0001 9.50378C11.4501 9.50378 11.0001 9.95378 11.0001 10.5038ZM13.0001 17.5038V15.5038H11.0001V17.5038H13.0001Z" fill="#6D7D8B"/>
</g>
</svg>
