<svg width="24" height="24" viewBox="0 0 24 24" fill="none" xmlns="http://www.w3.org/2000/svg">
<g id="icon/action/accessibility_new_24px">
<path id="icon/action/accessibility_new_24px_2" fill-rule="evenodd" clip-rule="evenodd" d="M13.9998 4C13.9998 5.1 13.0998 6 11.9998 6C10.8998 6 9.99978 5.1 9.99978 4C9.99978 2.9 10.8998 2 11.9998 2C13.0998 2 13.9998 2.9 13.9998 4ZM19.5098 6.24C20.0598 6.12 20.6098 6.44 20.7498 6.99C20.8898 7.55 20.5498 8.12 19.9898 8.25C18.3898 8.61 16.6498 8.86 14.9998 9V21C14.9998 21.55 14.5498 22 13.9998 22C13.4498 22 12.9998 21.55 12.9998 21V16H10.9998V21C10.9998 21.55 10.5498 22 9.99978 22C9.44978 22 8.99978 21.55 8.99978 21V9C7.34978 8.86 5.60978 8.61 3.99978 8.25C3.44978 8.12 3.10978 7.55 3.24978 6.99C3.38978 6.44 3.93978 6.12 4.48978 6.24C6.86978 6.77 9.51978 7 11.9998 7C14.4798 7 17.1298 6.77 19.5098 6.24Z" fill="#6D7D8B"/>
</g>
</svg>
