<svg width="24" height="24" viewBox="0 0 24 24" fill="none" xmlns="http://www.w3.org/2000/svg">
<g id="icon/action/account_balance_24px">
<path id="icon/action/account_balance_24px_2" fill-rule="evenodd" clip-rule="evenodd" d="M3.17 6.02128L11.07 1.86128C11.65 1.55128 12.35 1.55128 12.93 1.86128L20.83 6.02128C21.24 6.23128 21.5 6.66128 21.5 7.12128C21.5 7.81128 20.94 8.37128 20.26 8.37128H3.75C3.06 8.37128 2.5 7.81128 2.5 7.12128C2.5 6.66128 2.76 6.23128 3.17 6.02128ZM4.5 11.8713V15.8713C4.5 16.7013 5.17 17.3713 6 17.3713C6.83 17.3713 7.5 16.7013 7.5 15.8713V11.8713C7.5 11.0413 6.83 10.3713 6 10.3713C5.17 10.3713 4.5 11.0413 4.5 11.8713ZM10.5 11.8713V15.8713C10.5 16.7013 11.17 17.3713 12 17.3713C12.83 17.3713 13.5 16.7013 13.5 15.8713V11.8713C13.5 11.0413 12.83 10.3713 12 10.3713C11.17 10.3713 10.5 11.0413 10.5 11.8713ZM21.5 20.8713C21.5 21.7013 20.83 22.3713 20 22.3713H4C3.17 22.3713 2.5 21.7013 2.5 20.8713C2.5 20.0413 3.17 19.3713 4 19.3713H20C20.83 19.3713 21.5 20.0413 21.5 20.8713ZM16.5 11.8713V15.8713C16.5 16.7013 17.17 17.3713 18 17.3713C18.83 17.3713 19.5 16.7013 19.5 15.8713V11.8713C19.5 11.0413 18.83 10.3713 18 10.3713C17.17 10.3713 16.5 11.0413 16.5 11.8713Z" fill="#6D7D8B"/>
</g>
</svg>
