<svg width="24" height="24" viewBox="0 0 24 24" fill="none" xmlns="http://www.w3.org/2000/svg">
<g id="icon/action/alarm_24px">
<path id="icon/action/alarm_24px_2" fill-rule="evenodd" clip-rule="evenodd" d="M7.16976 3.88064L4.09976 6.44064C3.67976 6.79064 3.04976 6.74064 2.69976 6.31064C2.33976 5.89064 2.39976 5.26064 2.81976 4.90064L5.89976 2.34064C6.31976 1.99064 6.94976 2.04064 7.29976 2.47064C7.65976 2.89064 7.59976 3.52064 7.16976 3.88064ZM21.1798 4.90064L18.0998 2.34064C17.6798 1.99064 17.0498 2.04064 16.6898 2.47064C16.3398 2.89064 16.3998 3.52064 16.8198 3.88064L19.8898 6.44064C20.3098 6.79064 20.9398 6.74064 21.2998 6.31064C21.6598 5.89064 21.5998 5.26064 21.1798 4.90064ZM15.8698 15.1406L12.4998 13.1406V8.61064C12.4998 8.21064 12.1798 7.89064 11.7798 7.89064H11.7198C11.3198 7.89064 10.9998 8.21064 10.9998 8.61064V13.3306C10.9998 13.6806 11.1798 14.0106 11.4898 14.1906L15.1398 16.3806C15.4798 16.5806 15.9198 16.4806 16.1198 16.1406C16.3298 15.7906 16.2198 15.3406 15.8698 15.1406ZM11.9998 3.89064C7.02976 3.89064 2.99976 7.92064 2.99976 12.8906C2.99976 17.8606 7.02976 21.8906 11.9998 21.8906C16.9698 21.8906 20.9998 17.8606 20.9998 12.8906C20.9998 7.92064 16.9698 3.89064 11.9998 3.89064ZM4.99976 12.8906C4.99976 16.7506 8.13976 19.8906 11.9998 19.8906C15.8598 19.8906 18.9998 16.7506 18.9998 12.8906C18.9998 9.03064 15.8598 5.89064 11.9998 5.89064C8.13976 5.89064 4.99976 9.03064 4.99976 12.8906Z" fill="#6D7D8B"/>
</g>
</svg>
