<svg width="24" height="24" viewBox="0 0 24 24" fill="none" xmlns="http://www.w3.org/2000/svg">
<g id="icon/action/done_outline_24px">
<path id="icon/action/done_outline_24px_2" fill-rule="evenodd" clip-rule="evenodd" d="M8.4302 13.4451L18.3602 3.51505C19.1402 2.73505 20.4002 2.73505 21.1902 3.51505L22.5902 4.91505C23.3702 5.69505 23.3702 6.96505 22.5902 7.74505L9.8402 20.4851C9.0602 21.2651 7.7902 21.2651 7.0102 20.4851L1.4102 14.8851C0.630195 14.1051 0.630195 12.8351 1.4102 12.0551L2.8102 10.6551C3.5902 9.87505 4.8602 9.87505 5.6402 10.6551L8.4302 13.4451ZM20.4702 7.03505C20.8602 6.64505 20.8602 6.02505 20.4702 5.63505C20.0802 5.24505 19.4602 5.24505 19.0702 5.63505L8.43019 16.2751L4.9302 12.7751C4.5402 12.3851 3.9202 12.3851 3.5302 12.7751C3.34305 12.9599 3.23771 13.212 3.23771 13.4751C3.23771 13.7381 3.34305 13.9902 3.5302 14.1751L7.7302 18.3751C8.1202 18.7651 8.7402 18.7651 9.1302 18.3751L20.4702 7.03505Z" fill="#6D7D8B"/>
</g>
</svg>
