<svg width="24" height="24" viewBox="0 0 24 24" fill="none" xmlns="http://www.w3.org/2000/svg">
<g id="icon/action/explore_off_24px">
<path id="icon/action/explore_off_24px_2" fill-rule="evenodd" clip-rule="evenodd" d="M18.0009 5.99866L15.0909 12.2587L20.3409 17.5087C21.3909 15.9287 22.0009 14.0387 22.0009 11.9987C22.0009 6.47866 17.5209 1.99866 12.0009 1.99866C9.96091 1.99866 8.07091 2.60866 6.49091 3.65866L11.7409 8.90866L18.0009 5.99866ZM2.81091 5.63866L3.66091 6.48866C2.29091 8.55866 1.66091 11.1687 2.18091 13.9387C2.93091 17.8887 6.10091 21.0687 10.0609 21.8187C12.8309 22.3387 15.4409 21.7187 17.5109 20.3387L18.3609 21.1887C18.7509 21.5787 19.3809 21.5787 19.7709 21.1887C20.1609 20.7987 20.1609 20.1687 19.7709 19.7787L4.22091 4.21866C4.03408 4.0314 3.78043 3.92617 3.51591 3.92617C3.25139 3.92617 2.99774 4.0314 2.81091 4.21866C2.42091 4.60866 2.42091 5.24866 2.81091 5.63866ZM12.2609 15.0887L8.91091 11.7387L6.00091 17.9987L12.2609 15.0887Z" fill="#6D7D8B"/>
</g>
</svg>
