<svg width="24" height="24" viewBox="0 0 24 24" fill="none" xmlns="http://www.w3.org/2000/svg">
<g id="icon/action/open_with_24px">
<path id="icon/action/open_with_24px_2" fill-rule="evenodd" clip-rule="evenodd" d="M13.4995 8.99996H10.4995C10.2195 8.99996 9.99947 8.77996 9.99947 8.49996V5.99996H8.20947C7.75947 5.99996 7.53947 5.45996 7.84947 5.14996L11.6395 1.35996C11.8395 1.15996 12.1495 1.15996 12.3495 1.35996L16.1395 5.14996C16.4595 5.45996 16.2395 5.99996 15.7895 5.99996H13.9995V8.49996C13.9995 8.77996 13.7795 8.99996 13.4995 8.99996ZM5.99947 9.99996H8.49947C8.77947 9.99996 8.99947 10.22 8.99947 10.5V13.5C8.99947 13.78 8.77947 14 8.49947 14H5.99947V15.79C5.99947 16.24 5.45947 16.46 5.14947 16.15L1.35947 12.36C1.15947 12.16 1.15947 11.85 1.35947 11.65L5.14947 7.85996C5.45947 7.53996 5.99947 7.75996 5.99947 8.20996V9.99996ZM22.6495 11.65L18.8595 7.85996C18.5395 7.53996 17.9995 7.75996 17.9995 8.20996V9.99996H15.4995C15.2195 9.99996 14.9995 10.22 14.9995 10.5V13.5C14.9995 13.78 15.2195 14 15.4995 14H17.9995V15.79C17.9995 16.24 18.5395 16.46 18.8495 16.14L22.6395 12.35C22.8395 12.16 22.8395 11.84 22.6495 11.65ZM10.4995 15H13.4995C13.7795 15 13.9995 15.22 13.9995 15.5V18H15.7995C16.2395 18 16.4595 18.54 16.1495 18.85L12.3595 22.64C12.1595 22.84 11.8495 22.84 11.6495 22.64L7.85947 18.85C7.53947 18.54 7.75947 18 8.20947 18H9.99947V15.5C9.99947 15.22 10.2195 15 10.4995 15Z" fill="#6D7D8B"/>
</g>
</svg>
