<svg width="24" height="24" viewBox="0 0 24 24" fill="none" xmlns="http://www.w3.org/2000/svg">
<g id="icon/action/work_off_24px">
<path id="icon/action/work_off_24px_2" fill-rule="evenodd" clip-rule="evenodd" d="M13.6338 3.70874H9.63379V5.30874L7.67379 3.34874C7.83379 2.40874 8.64379 1.70874 9.63379 1.70874H13.6338C14.7438 1.70874 15.6338 2.59874 15.6338 3.70874V5.70874H19.6338C20.7438 5.70874 21.6338 6.59874 21.6338 7.70874V17.3087L10.0338 5.70874H13.6338V3.70874ZM3.03879 1.95625C3.30331 1.95625 3.55696 2.06149 3.74379 2.24874L22.0738 20.5887C22.4638 20.9787 22.4638 21.6087 22.0738 21.9987C21.6838 22.3887 21.0538 22.3887 20.6638 21.9987L19.3738 20.7087H3.63379C2.52379 20.7087 1.63379 19.8187 1.63379 18.7087L1.64379 7.70874C1.64379 6.59874 2.52379 5.70874 3.63379 5.70874H4.37379L2.33379 3.65874C1.94379 3.26874 1.94379 2.63874 2.33379 2.24874C2.52062 2.06149 2.77427 1.95625 3.03879 1.95625Z" fill="#6D7D8B"/>
</g>
</svg>
