<svg width="24" height="24" viewBox="0 0 24 24" fill="none" xmlns="http://www.w3.org/2000/svg">
<g id="icon/action/zoom_in_24px">
<path id="icon/action/zoom_in_24px_2" fill-rule="evenodd" clip-rule="evenodd" d="M15.9706 14.4716H15.1806L14.9006 14.2016C16.1006 12.8016 16.7206 10.8916 16.3806 8.86157C15.9106 6.08157 13.5906 3.86157 10.7906 3.52157C6.5606 3.00157 3.0106 6.56157 3.5206 10.7916C3.8606 13.5916 6.0806 15.9116 8.8606 16.3816C10.8906 16.7216 12.8006 16.1016 14.2006 14.9016L14.4706 15.1816V15.9716L18.7306 20.2216C19.1406 20.6316 19.8006 20.6316 20.2106 20.2216L20.2206 20.2116C20.6306 19.8016 20.6306 19.1416 20.2206 18.7316L15.9706 14.4716ZM9.9706 14.4716C7.4806 14.4716 5.4706 12.4616 5.4706 9.97157C5.4706 7.48157 7.4806 5.47157 9.9706 5.47157C12.4606 5.47157 14.4706 7.48157 14.4706 9.97157C14.4706 12.4616 12.4606 14.4716 9.9706 14.4716ZM9.4706 7.97157C9.4706 7.69157 9.6906 7.47157 9.9706 7.47157C10.2506 7.47157 10.4706 7.69157 10.4706 7.97157V9.47157H11.9706C12.2506 9.47157 12.4706 9.69157 12.4706 9.97157C12.4706 10.2516 12.2506 10.4716 11.9706 10.4716H10.4706V11.9716C10.4706 12.2516 10.2506 12.4716 9.9706 12.4716C9.6906 12.4716 9.4706 12.2516 9.4706 11.9716V10.4716H7.9706C7.6906 10.4716 7.4706 10.2516 7.4706 9.97157C7.4706 9.69157 7.6906 9.47157 7.9706 9.47157H9.4706V7.97157Z" fill="#6D7D8B"/>
</g>
</svg>
